{
  "accessors": [
    {
      "bufferView": 2,
      "componentType": 5126,
      "count": 23274,
      "max": [
        0.75986701250076294,
        1,
        0.20114700496196747
      ],
      "min": [
        -0.75986701250076294,
        -1,
        -0.20114700496196747
      ],
      "type": "VEC3"
    },
    {
      "bufferView": 2,
      "byteOffset": 279288,
      "componentType": 5126,
      "count": 23274,
      "max": [
        0.99998438358306885,
        0.99998438358306885,
        0.99992221593856812
      ],
      "min": [
        -0.99998462200164795,
        -0.9999847412109375,
        -0.9999232292175293
      ],
      "type": "VEC3"
    },
    {
      "bufferView": 3,
      "componentType": 5126,
      "count": 23274,
      "max": [
        0.9999849796295166,
        0.999767005443573,
        0.9999229907989502,
        1
      ],
      "min": [
        -0.9999849796295166,
        -0.99984097480773926,
        -0.99990600347518921,
        -1
      ],
      "type": "VEC4"
    },
    {
      "bufferView": 2,
      "byteOffset": 558576,
      "componentType": 5126,
      "count": 23274,
      "max": [
        1,
        1,
        1
      ],
      "min": [
        1,
        1,
        1
      ],
      "type": "VEC3"
    },
    {
      "bufferView": 1,
      "componentType": 5126,
      "count": 23274,
      "max": [
        0.99890601634979248,
        0.99934601783752441
      ],
      "min": [
        0.0021730100270360708,
        0.0011329699773341417
      ],
      "type": "VEC2"
    },
    {
      "bufferView": 0,
      "componentType": 5125,
      "count": 123012,
      "max": [
        23273
      ],
      "min": [
        0
      ],
      "type": "SCALAR"
    }
  ],
  "asset": {
    "extras": {
      "author": "Anthony Guiziou (https://sketchfab.com/antoman29)",
      "license": "CC-BY-SA-4.0 (http://creativecommons.org/licenses/by-sa/4.0/)",
      "source": "https://sketchfab.com/3d-models/unreal-engine-4-character-815b7d1a78f646e3a1614236351377a4",
      "title": "Unreal Engine 4 Character"
    },
    "generator": "Sketchfab-4.44.0",
    "version": "2.0"
  },
  "bufferViews": [
    {
      "buffer": 0,
      "byteLength": 492048,
      "byteOffset": 0,
      "name": "floatBufferViews",
      "target": 34963
    },
    {
      "buffer": 0,
      "byteLength": 186192,
      "byteOffset": 492048,
      "byteStride": 8,
      "name": "floatBufferViews",
      "target": 34962
    },
    {
      "buffer": 0,
      "byteLength": 837864,
      "byteOffset": 678240,
      "byteStride": 12,
      "name": "floatBufferViews",
      "target": 34962
    },
    {
      "buffer": 0,
      "byteLength": 372384,
      "byteOffset": 1516104,
      "byteStride": 16,
      "name": "floatBufferViews",
      "target": 34962
    }
  ],
  "buffers": [
    {
      "byteLength": 1888488,
      "uri": "scene.bin"
    }
  ],
  "images": [
    {
      "uri": "textures/M_UE4Man_Body_normal.jpeg"
    },
    {
      "uri": "textures/M_UE4Man_Body_metallicRoughness.png"
    },
    {
      "uri": "textures/M_UE4Man_Body_emissive.jpeg"
    },
    {
      "uri": "textures/M_UE4Man_Body_baseColor.jpeg"
    }
  ],
  "materials": [
    {
      "doubleSided": true,
      "emissiveFactor": [
        1,
        1,
        1
      ],
      "emissiveTexture": {
        "index": 2,
        "texCoord": 0
      },
      "name": "M_UE4Man_Body",
      "normalTexture": {
        "index": 0,
        "scale": 1,
        "texCoord": 0
      },
      "occlusionTexture": {
        "index": 1,
        "strength": 1,
        "texCoord": 0
      },
      "pbrMetallicRoughness": {
        "baseColorFactor": [
          1,
          1,
          1,
          1
        ],
        "baseColorTexture": {
          "index": 3,
          "texCoord": 0
        },
        "metallicFactor": 1,
        "metallicRoughnessTexture": {
          "index": 1,
          "texCoord": 0
        },
        "roughnessFactor": 1
      }
    }
  ],
  "meshes": [
    {
      "name": "defaultMaterial",
      "primitives": [
        {
          "attributes": {
            "COLOR_0": 3,
            "NORMAL": 1,
            "POSITION": 0,
            "TANGENT": 2,
            "TEXCOORD_0": 4
          },
          "indices": 5,
          "material": 0,
          "mode": 4
        }
      ]
    }
  ],
  "nodes": [
    {
      "children": [
        1
      ],
      "name": "RootNode (gltf orientation matrix)",
      "rotation": [
        -0.70710678118654746,
        -0,
        -0,
        0.70710678118654757
      ]
    },
    {
      "children": [
        2
      ],
      "name": "RootNode (model correction matrix)"
    },
    {
      "children": [
        3
      ],
      "matrix": [
        1,
        0,
        0,
        0,
        0,
        -4.3711390063094768e-08,
        0.999999999999999,
        0,
        0,
        -0.999999999999999,
        -4.3711390063094768e-08,
        0,
        0,
        0,
        0,
        1
      ],
      "name": "Collada visual scene group"
    },
    {
      "children": [
        4
      ],
      "name": "SK_Mannequin"
    },
    {
      "mesh": 0,
      "name": "defaultMaterial"
    }
  ],
  "samplers": [
    {
      "magFilter": 9729,
      "minFilter": 9987,
      "wrapS": 10497,
      "wrapT": 10497
    }
  ],
  "scene": 0,
  "scenes": [
    {
      "name": "OSG_Scene",
      "nodes": [
        0
      ]
    }
  ],
  "textures": [
    {
      "sampler": 0,
      "source": 0
    },
    {
      "sampler": 0,
      "source": 1
    },
    {
      "sampler": 0,
      "source": 2
    },
    {
      "sampler": 0,
      "source": 3
    }
  ]
}

